<svg width="1038" height="422" viewBox="0 0 1038 422" fill="none" xmlns="http://www.w3.org/2000/svg">
<path d="M22.5112 199.465L1017 193.664" stroke="white" stroke-width="24.8622" stroke-linecap="round"/>
<path d="M22.5112 147.256C55.6609 147.256 88.8105 80.957 121.96 80.957C155.11 80.957 188.259 147.256 221.409 147.256C254.559 147.256 287.708 80.957 320.858 80.957C354.008 80.957 387.157 147.256 420.307 147.256C453.457 147.256 486.606 80.957 519.756 80.957C552.905 80.957 586.055 147.256 619.205 147.256C652.354 147.256 685.504 80.957 718.654 80.957C751.803 80.957 784.953 147.256 818.103 147.256C851.252 147.256 884.402 80.957 917.551 80.957C950.701 80.957 983.851 147.256 1017 147.256" stroke="white" stroke-width="24.8622" stroke-linecap="round" stroke-linejoin="round"/>
<path d="M20.8545 79.2993C54.0041 79.2993 87.1538 13 120.303 13C153.453 13 186.603 79.2993 219.752 79.2993C252.902 79.2993 286.052 13 319.201 13C352.351 13 385.501 79.2993 418.65 79.2993C451.8 79.2993 484.949 13 518.099 13C551.249 13 584.398 79.2993 617.548 79.2993C650.698 79.2993 683.847 13 716.997 13C750.147 13 783.296 79.2993 816.446 79.2993C849.595 79.2993 882.745 13 915.895 13C949.044 13 982.194 79.2993 1015.34 79.2993" stroke="white" stroke-width="24.8622" stroke-linecap="round" stroke-linejoin="round"/>
<path d="M28.9661 315.481C24.6877 315.481 20.8718 314.325 17.5184 312.012C14.1651 309.584 12.4884 305.942 12.4884 301.085C12.4884 295.882 14.3385 291.545 18.0388 288.076C21.8547 284.607 26.8269 282.006 32.9554 280.271C39.084 278.537 45.6173 277.669 52.5553 277.669C64.2342 277.669 73.138 280.098 79.2665 284.954C85.5107 289.811 88.575 297.153 88.4594 306.982L59.3198 303.687C59.3198 298.83 57.99 295.361 55.3305 293.28C52.6709 291.198 49.2597 290.158 45.0969 290.158C42.0905 290.158 39.3153 290.562 36.7713 291.372C34.343 292.181 32.2038 293.338 30.3537 294.841C28.6192 296.344 27.2316 298.136 26.1909 300.218L26.3644 291.545C31.7991 291.545 36.0775 292.47 39.1996 294.32C42.3217 296.055 43.8828 299.004 43.8828 303.166C43.8828 306.982 42.553 309.989 39.8934 312.186C37.3495 314.383 33.7071 315.481 28.9661 315.481ZM88.1124 371.853C79.2087 371.853 72.7332 369.424 68.6861 364.568C64.6389 359.711 62.6153 352.889 62.6153 344.101V341.499H58.9729V319.818H58.2791L59.3198 312.012V303.687L88.4594 306.982V345.315C88.4594 347.165 88.9219 348.668 89.8469 349.824C90.772 350.865 91.9862 351.385 93.4894 351.385C95.2239 351.385 96.5537 350.865 97.4787 349.824C98.4038 348.668 98.8663 347.165 98.8663 345.315V311.319H114.477V343.754C114.477 352.311 112.395 359.133 108.233 364.221C104.07 369.309 97.3631 371.853 88.1124 371.853ZM33.4758 371.679C24.4564 371.679 17.345 369.482 12.1415 365.088C7.05362 360.578 4.50969 354.854 4.50969 347.916C4.50969 342.713 5.66602 338.377 7.97869 334.908C10.2913 331.439 13.4713 328.606 17.5184 326.409C21.5656 324.096 26.1909 322.246 31.3944 320.858L46.4845 316.695C49.3753 315.886 51.7458 314.961 53.596 313.92C55.4461 312.764 56.8337 311.376 57.7587 309.758C58.7994 308.023 59.3198 305.942 59.3198 303.513L59.8401 319.818H58.9729C58.3947 321.436 57.354 322.882 55.8508 324.154C54.4632 325.426 52.6131 326.524 50.3004 327.449L47.0049 328.837C44.8078 329.762 42.9577 330.803 41.4545 331.959C39.9512 333 38.7949 334.272 37.9855 335.775C37.1761 337.163 36.7713 338.839 36.7713 340.805C36.7713 343.811 37.6386 346.182 39.3731 347.916C41.1076 349.651 43.4202 350.518 46.3111 350.518C48.6237 350.518 50.7051 349.998 52.5553 348.957C54.521 347.916 56.0821 346.298 57.2384 344.101C58.3947 341.904 58.9729 339.013 58.9729 335.428L64.1764 337.336C64.1764 345.199 62.9622 351.675 60.5339 356.762C58.1056 361.85 54.5788 365.608 49.9535 368.037C45.4438 370.465 39.9512 371.679 33.4758 371.679ZM160.392 369.598V354.681H173.748V294.667H161.606V279.751H200.459V309.931L204.275 309.411V354.681H211.907V369.598H160.392ZM217.457 369.598V354.681H225.089V308.543C225.089 305.074 224.222 302.473 222.487 300.738C220.753 298.888 218.44 297.963 215.549 297.963C213.468 297.963 211.56 298.368 209.825 299.177C208.206 299.987 206.877 301.374 205.836 303.34C204.795 305.306 204.275 308.023 204.275 311.492L199.765 311.665C199.765 304.843 200.459 298.946 201.847 293.974C203.35 289.001 206.125 285.128 210.172 282.352C214.219 279.577 220.059 278.19 227.691 278.19C235.901 278.19 242.607 280.56 247.811 285.301C253.014 290.042 255.616 297.558 255.616 307.85V354.681H263.248V369.598H217.457ZM268.798 369.598V354.681H276.43V308.543C276.43 305.074 275.563 302.473 273.828 300.738C272.094 298.888 269.781 297.963 266.89 297.963C264.925 297.963 263.074 298.368 261.34 299.177C259.605 299.987 258.218 301.374 257.177 303.34C256.136 305.306 255.616 308.023 255.616 311.492L253.014 311.665C253.014 304.843 253.708 298.946 255.096 293.974C256.599 289.001 259.316 285.128 263.248 282.352C267.179 279.577 272.845 278.19 280.246 278.19C288.34 278.19 294.816 280.618 299.672 285.475C304.529 290.216 306.957 297.905 306.957 308.543V354.681H316.497V369.598H268.798ZM375.738 371.679C365.678 371.679 356.89 369.829 349.374 366.129C341.858 362.313 335.96 356.936 331.682 349.998C327.519 342.944 325.438 334.503 325.438 324.674C325.438 314.845 327.519 306.462 331.682 299.524C335.96 292.47 341.858 287.093 349.374 283.393C356.89 279.577 365.678 277.669 375.738 277.669C385.798 277.669 394.586 279.577 402.102 283.393C409.619 287.093 415.458 292.47 419.621 299.524C423.899 306.462 426.039 314.845 426.039 324.674C426.039 334.503 423.899 342.944 419.621 349.998C415.458 357.051 409.619 362.428 402.102 366.129C394.586 369.829 385.798 371.679 375.738 371.679ZM375.738 357.803C379.091 357.803 381.867 356.531 384.064 353.987C386.376 351.328 388.111 347.454 389.267 342.366C390.424 337.163 391.002 330.861 391.002 323.46C391.002 316.638 390.424 310.856 389.267 306.115C388.111 301.374 386.376 297.789 384.064 295.361C381.867 292.817 379.091 291.545 375.738 291.545C372.385 291.545 369.552 292.875 367.239 295.535C365.042 298.079 363.365 301.837 362.209 306.809C361.053 311.665 360.475 317.621 360.475 324.674C360.475 331.843 361.053 337.914 362.209 342.886C363.365 347.743 365.042 351.443 367.239 353.987C369.552 356.531 372.385 357.803 375.738 357.803ZM478.037 371.332C470.405 371.332 463.698 369.598 457.917 366.129C452.135 362.544 447.625 357.283 444.388 350.345C441.15 343.407 439.531 334.85 439.531 324.674C439.531 314.383 441.15 305.826 444.388 299.004C447.625 292.066 452.077 286.862 457.743 283.393C463.525 279.809 470.232 278.016 477.863 278.016C486.42 278.016 493.069 279.982 497.81 283.914C502.551 287.845 505.904 293.338 507.87 300.391C509.836 307.329 510.819 315.366 510.819 324.501L512.553 324.848C512.669 333.636 511.57 341.557 509.258 348.61C507.061 355.664 503.418 361.214 498.33 365.261C493.243 369.309 486.478 371.332 478.037 371.332ZM490.005 353.987C493.589 353.987 496.596 352.889 499.024 350.692C501.453 348.495 503.303 345.199 504.575 340.805C505.847 336.411 506.483 331.034 506.483 324.674C506.483 318.199 505.847 312.822 504.575 308.543C503.303 304.149 501.453 300.854 499.024 298.657C496.596 296.46 493.589 295.361 490.005 295.361C486.536 295.361 483.529 296.46 480.985 298.657C478.557 300.854 476.707 304.149 475.435 308.543C474.163 312.822 473.527 318.199 473.527 324.674C473.527 331.034 474.163 336.411 475.435 340.805C476.707 345.199 478.557 348.495 480.985 350.692C483.529 352.889 486.536 353.987 490.005 353.987ZM507.176 369.598V347.57L509.778 323.807L504.748 303.513V266.222H492.607V251.305H536.316V354.681H547.937V369.598H507.176ZM606.521 371.679C596.461 371.679 587.673 369.829 580.157 366.129C572.641 362.313 566.743 356.936 562.465 349.998C558.302 342.944 556.221 334.503 556.221 324.674C556.221 314.845 558.302 306.462 562.465 299.524C566.743 292.47 572.641 287.093 580.157 283.393C587.673 279.577 596.461 277.669 606.521 277.669C616.581 277.669 625.369 279.577 632.885 283.393C640.402 287.093 646.241 292.47 650.404 299.524C654.682 306.462 656.821 314.845 656.821 324.674C656.821 334.503 654.682 342.944 650.404 349.998C646.241 357.051 640.402 362.428 632.885 366.129C625.369 369.829 616.581 371.679 606.521 371.679ZM606.521 357.803C609.874 357.803 612.65 356.531 614.847 353.987C617.159 351.328 618.894 347.454 620.05 342.366C621.206 337.163 621.785 330.861 621.785 323.46C621.785 316.638 621.206 310.856 620.05 306.115C618.894 301.374 617.159 297.789 614.847 295.361C612.65 292.817 609.874 291.545 606.521 291.545C603.168 291.545 600.335 292.875 598.022 295.535C595.825 298.079 594.148 301.837 592.992 306.809C591.836 311.665 591.257 317.621 591.257 324.674C591.257 331.843 591.836 337.914 592.992 342.886C594.148 347.743 595.825 351.443 598.022 353.987C600.335 356.531 603.168 357.803 606.521 357.803ZM703.811 369.598V354.681H717.167V294.667H705.026V279.751H743.878V309.931L747.694 309.411V354.681H755.326V369.598H703.811ZM760.876 369.598V354.681H768.508V308.543C768.508 305.074 767.641 302.473 765.906 300.738C764.172 298.888 761.859 297.963 758.968 297.963C756.887 297.963 754.979 298.368 753.245 299.177C751.626 299.987 750.296 301.374 749.255 303.34C748.215 305.306 747.694 308.023 747.694 311.492L743.185 311.665C743.185 304.843 743.878 298.946 745.266 293.974C746.769 289.001 749.544 285.128 753.591 282.352C757.639 279.577 763.478 278.19 771.11 278.19C779.32 278.19 786.027 280.56 791.23 285.301C796.434 290.042 799.035 297.558 799.035 307.85V354.681H806.667V369.598H760.876ZM812.217 369.598V354.681H819.849V308.543C819.849 305.074 818.982 302.473 817.248 300.738C815.513 298.888 813.2 297.963 810.31 297.963C808.344 297.963 806.494 298.368 804.759 299.177C803.025 299.987 801.637 301.374 800.596 303.34C799.556 305.306 799.035 308.023 799.035 311.492L796.434 311.665C796.434 304.843 797.127 298.946 798.515 293.974C800.018 289.001 802.736 285.128 806.667 282.352C810.599 279.577 816.265 278.19 823.665 278.19C831.759 278.19 838.235 280.618 843.092 285.475C847.948 290.216 850.376 297.905 850.376 308.543V354.681H859.916V369.598H812.217ZM868.324 369.598V354.681H881.68V294.667H869.539V279.751H912.901V354.681H924.522V369.598H868.324ZM896.25 273.16C891.162 273.16 887.057 271.656 883.935 268.65C880.813 265.528 879.252 261.365 879.252 256.162C879.252 250.958 880.813 246.853 883.935 243.847C887.057 240.725 891.162 239.163 896.25 239.163C901.338 239.163 905.443 240.725 908.565 243.847C911.687 246.853 913.248 250.958 913.248 256.162C913.248 261.365 911.687 265.528 908.565 268.65C905.443 271.656 901.338 273.16 896.25 273.16ZM983.225 371.679C973.165 371.679 964.377 369.829 956.861 366.129C949.345 362.313 943.448 356.936 939.169 349.998C935.006 342.944 932.925 334.503 932.925 324.674C932.925 314.845 935.006 306.462 939.169 299.524C943.448 292.47 949.345 287.093 956.861 283.393C964.377 279.577 973.165 277.669 983.225 277.669C993.285 277.669 1002.07 279.577 1009.59 283.393C1017.11 287.093 1022.95 292.47 1027.11 299.524C1031.39 306.462 1033.53 314.845 1033.53 324.674C1033.53 334.503 1031.39 342.944 1027.11 349.998C1022.95 357.051 1017.11 362.428 1009.59 366.129C1002.07 369.829 993.285 371.679 983.225 371.679ZM983.225 357.803C986.579 357.803 989.354 356.531 991.551 353.987C993.864 351.328 995.598 347.454 996.754 342.366C997.911 337.163 998.489 330.861 998.489 323.46C998.489 316.638 997.911 310.856 996.754 306.115C995.598 301.374 993.864 297.789 991.551 295.361C989.354 292.817 986.579 291.545 983.225 291.545C979.872 291.545 977.039 292.875 974.726 295.535C972.529 298.079 970.853 301.837 969.696 306.809C968.54 311.665 967.962 317.621 967.962 324.674C967.962 331.843 968.54 337.914 969.696 342.886C970.853 347.743 972.529 351.443 974.726 353.987C977.039 356.531 979.872 357.803 983.225 357.803Z" fill="white"/>
</svg>
