<svg width="851" height="440" viewBox="0 0 851 440" fill="none" xmlns="http://www.w3.org/2000/svg">
<path d="M188.57 431.168V382.911H194.246V426.479H203.157V431.168H188.57ZM207.042 431.168L214.363 382.911H221.19L229.169 431.168H223.822L222.451 421.955H213.704L212.443 431.168H207.042ZM214.335 417.349H221.738L217.927 391.85H217.845L214.335 417.349ZM257.2 431.168L249.167 382.911H254.568L257.776 403.338L260.518 421.297H260.628L263.013 403.338L265.782 382.911H271.129L263.808 431.168H257.2ZM278.194 431.168V382.911H292.616V387.627H283.87V404.133H292.15V408.849H283.87V426.452H292.726V431.168H278.194ZM300.888 431.168V382.911H311.006C313.565 382.911 315.456 383.368 316.681 384.282C317.906 385.178 318.701 386.54 319.067 388.367C319.45 390.177 319.642 392.462 319.642 395.222C319.642 398.202 319.341 400.569 318.738 402.324C318.134 404.078 316.965 405.212 315.228 405.723C316.105 405.87 316.827 406.244 317.394 406.848C317.979 407.451 318.436 408.392 318.765 409.672C319.094 410.951 319.323 412.67 319.45 414.826C319.597 416.965 319.67 419.661 319.67 422.915C319.67 423.226 319.67 423.674 319.67 424.258C319.67 424.843 319.679 425.483 319.697 426.178C319.716 426.872 319.734 427.558 319.752 428.234C319.789 428.911 319.834 429.514 319.889 430.044C319.944 430.556 320.017 430.93 320.109 431.168H314.46C314.387 431.003 314.323 430.638 314.268 430.071C314.213 429.505 314.168 428.755 314.131 427.823C314.095 426.891 314.067 425.785 314.049 424.505C314.031 423.207 314.022 421.763 314.022 420.173C314.022 418.565 314.022 416.81 314.022 414.909C314.022 413.081 313.939 411.692 313.775 410.741C313.629 409.772 313.263 409.105 312.678 408.74C312.111 408.356 311.197 408.127 309.936 408.054L306.564 407.862V431.168H300.888ZM306.564 403.694H310.183C311.225 403.694 312.02 403.493 312.568 403.091C313.135 402.671 313.519 401.848 313.72 400.624C313.921 399.381 314.022 397.525 314.022 395.058V394.729C314.022 392.681 313.921 391.137 313.72 390.095C313.537 389.035 313.172 388.322 312.623 387.956C312.075 387.591 311.243 387.408 310.128 387.408H306.564V403.694ZM326.05 431.168L333.37 382.911H340.198L348.176 431.168H342.83L341.459 421.955H332.712L331.451 431.168H326.05ZM333.343 417.349H340.746L336.935 391.85H336.853L333.343 417.349ZM370.999 431.168V382.911H380.705C382.624 382.911 384.178 383.231 385.366 383.871C386.572 384.511 387.495 385.434 388.135 386.64C388.775 387.847 389.205 389.3 389.424 391C389.662 392.7 389.78 394.61 389.78 396.73V397.47C389.78 400.706 389.524 403.42 389.013 405.614C388.519 407.807 387.614 409.462 386.298 410.577C385 411.673 383.136 412.222 380.705 412.222H376.674V431.168H370.999ZM376.674 407.506H380.129C381.244 407.506 382.085 407.195 382.652 406.573C383.218 405.934 383.602 404.883 383.803 403.42C384.022 401.958 384.132 399.975 384.132 397.47V396.538C384.132 393.431 383.894 391.137 383.419 389.656C382.944 388.157 381.893 387.408 380.266 387.408H376.674V407.506ZM397.476 431.168V382.911H403.152V431.168H397.476ZM410.985 431.168V426.26L420.938 387.627H411.89V382.911H426.805V387.243L416.852 426.452H426.586V431.168H410.985ZM431.869 431.168V426.26L441.822 387.627H432.774V382.911H447.69V387.243L437.737 426.452H447.47V431.168H431.869ZM452.232 431.168L459.553 382.911H466.38L474.359 431.168H469.013L467.642 421.955H458.895L457.634 431.168H452.232ZM459.526 417.349H466.929L463.118 391.85H463.035L459.526 417.349ZM497.181 431.168V382.911H502.857V431.168H497.181ZM514.775 431.168V387.627H509.456V382.911H525.386V387.627H520.424V431.168H514.775ZM529.408 431.168L536.729 382.911H543.556L551.535 431.168H546.188L544.817 421.955H536.071L534.81 431.168H529.408ZM536.701 417.349H544.104L540.293 391.85H540.211L536.701 417.349ZM558.847 431.168V382.911H564.523V426.479H573.434V431.168H558.847ZM579.896 431.168V382.911H585.571V431.168H579.896ZM592.883 431.168L600.204 382.911H607.031L615.01 431.168H609.664L608.293 421.955H599.546L598.285 431.168H592.883ZM600.177 417.349H607.58L603.769 391.85H603.686L600.177 417.349ZM622.322 431.168V382.911H626.599L637.786 415.759L637.211 401.803V382.911H642.228V431.168H638.06L627.23 398.046L627.559 410.22V431.168H622.322ZM649.513 431.168L656.833 382.911H663.661L671.64 431.168H666.293L664.922 421.955H656.175L654.914 431.168H649.513ZM656.806 417.349H664.209L660.398 391.85H660.316L656.806 417.349Z" fill="white"/>
<path d="M18.6008 165.079L840.357 160.286" stroke="white" stroke-width="20.5439" stroke-linecap="round"/>
<path d="M18.6008 121.937C45.9927 121.937 73.3846 67.1533 100.776 67.1533C128.168 67.1533 155.56 121.937 182.952 121.937C210.344 121.937 237.736 67.1533 265.128 67.1533C292.52 67.1533 319.912 121.937 347.303 121.937C374.695 121.937 402.087 67.1533 429.479 67.1533C456.871 67.1533 484.263 121.937 511.655 121.937C539.047 121.937 566.438 67.1533 593.83 67.1533C621.222 67.1533 648.614 121.937 676.006 121.937C703.398 121.937 730.79 67.1533 758.182 67.1533C785.574 67.1533 812.965 121.937 840.357 121.937" stroke="white" stroke-width="20.5439" stroke-linecap="round" stroke-linejoin="round"/>
<path d="M17.2314 65.7838C44.6233 65.7838 72.0152 11 99.4071 11C126.799 11 154.191 65.7838 181.583 65.7838C208.975 65.7838 236.367 11 263.758 11C291.15 11 318.542 65.7838 345.934 65.7838C373.326 65.7838 400.718 11 428.11 11C455.502 11 482.893 65.7838 510.285 65.7838C537.677 65.7838 565.069 11 592.461 11C619.853 11 647.245 65.7838 674.637 65.7838C702.029 65.7838 729.42 11 756.812 11C784.204 11 811.596 65.7838 838.988 65.7838" stroke="white" stroke-width="20.5439" stroke-linecap="round" stroke-linejoin="round"/>
<path d="M23.1417 285.041C19.7439 285.041 16.7134 284.123 14.0503 282.286C11.3872 280.358 10.0556 277.465 10.0556 273.608C10.0556 269.476 11.5249 266.032 14.4635 263.277C17.494 260.522 21.4428 258.502 26.3099 257.216C31.177 255.839 36.3655 255.15 41.8754 255.15C51.1505 255.15 58.2674 257.078 63.2264 260.935C68.1853 264.792 70.6188 270.623 70.527 278.429L47.3853 275.812C47.3853 271.955 46.3293 269.2 44.2171 267.547C42.105 265.894 39.35 265.068 35.9522 265.068C33.6564 265.068 31.4984 265.389 29.4781 266.032C27.4578 266.675 25.713 267.593 24.2437 268.787C22.8662 269.981 21.7642 271.404 20.9377 273.057L21.2132 266.032C25.4375 266.032 28.7893 266.767 31.2688 268.236C33.7483 269.613 34.988 271.955 34.988 275.261C34.988 278.291 33.9319 280.679 31.8198 282.424C29.7995 284.169 26.9068 285.041 23.1417 285.041ZM70.3893 329.947C63.2264 329.947 58.0379 328.019 54.8237 324.162C51.6096 320.305 50.0025 314.887 50.0025 307.907V305.841H47.1098V288.623H46.5588L47.3853 282.424V275.812L70.527 278.429V308.872C70.527 310.341 70.8943 311.535 71.629 312.453C72.3637 313.279 73.3279 313.693 74.5217 313.693C75.8992 313.693 76.9553 313.279 77.6899 312.453C78.4246 311.535 78.7919 310.341 78.7919 308.872V282.286H91.327V307.632C91.327 314.427 89.674 319.845 86.368 323.886C83.0621 327.927 77.7358 329.947 70.3893 329.947ZM26.7231 329.809C19.5602 329.809 13.9126 328.064 9.78011 324.575C5.7395 320.993 3.7192 316.448 3.7192 310.938C3.7192 306.805 4.63752 303.362 6.47416 300.607C8.3108 297.76 10.8362 295.464 14.0503 293.719C17.2644 291.883 20.9377 290.413 25.0701 289.311L37.0542 286.005C39.35 285.363 41.2326 284.628 42.7019 283.801C44.263 282.883 45.4109 281.781 46.1456 280.495C46.9721 279.21 47.3853 277.603 47.3853 275.674L47.7986 288.623H47.1098C46.6507 289.908 45.8242 291.056 44.6304 292.066C43.4366 293.076 41.9213 293.949 40.0847 294.683L37.4675 295.785C35.7227 296.52 34.2534 297.347 33.0595 298.265C31.8657 299.091 30.9474 300.102 30.3046 301.295C29.6618 302.397 29.3403 303.729 29.3403 305.29C29.3403 307.678 30.0291 309.56 31.4066 310.938C32.784 312.315 34.6207 313.004 36.9165 313.004C38.7531 313.004 40.4061 312.591 41.8754 311.764C43.4366 310.938 44.6763 309.652 45.5946 307.907C46.6048 306.162 47.1098 303.821 47.1098 300.882L51.2423 302.397C51.2423 308.734 50.2321 313.922 48.2118 317.963C46.2834 322.004 43.4825 324.988 39.8092 326.917C36.2277 328.845 31.8657 329.809 26.7231 329.809ZM131.078 328.156V316.31H141.685V268.649H132.042V256.803H162.898V280.771L165.928 280.358V316.31H171.989V328.156H131.078ZM176.535 328.156V316.31H182.596V279.669C182.596 276.914 181.861 274.848 180.392 273.47C179.014 272.001 177.178 271.266 174.882 271.266C173.229 271.266 171.714 271.588 170.336 272.231C169.051 272.873 167.995 273.975 167.168 275.536C166.342 277.098 165.928 279.256 165.928 282.011L162.347 282.148C162.347 276.73 162.898 272.047 164 268.098C165.194 264.149 167.398 261.073 170.612 258.869C173.826 256.665 178.463 255.563 184.524 255.563C191.044 255.563 196.371 257.446 200.503 261.211C204.727 264.976 206.839 270.945 206.839 279.118V316.31H212.9V328.156H176.535ZM217.308 328.156V316.31H223.369V279.669C223.369 276.914 222.681 274.848 221.303 273.47C219.926 272.001 218.089 271.266 215.793 271.266C214.232 271.266 212.763 271.588 211.385 272.231C210.008 272.873 208.906 273.975 208.079 275.536C207.253 277.098 206.839 279.256 206.839 282.011L204.636 282.148C204.636 276.73 205.232 272.047 206.426 268.098C207.62 264.149 209.778 261.073 212.9 258.869C216.023 256.665 220.522 255.563 226.4 255.563C232.828 255.563 237.971 257.491 241.827 261.348C245.776 265.114 247.751 271.22 247.751 279.669V316.31H255.189V328.156H217.308ZM304.018 329.809C295.936 329.809 288.911 328.34 282.942 325.401C276.973 322.371 272.29 318.101 268.892 312.591C265.586 306.989 263.933 300.285 263.933 292.48C263.933 284.674 265.586 277.97 268.892 272.368C272.29 266.767 276.973 262.496 282.942 259.558C288.911 256.619 295.936 255.15 304.018 255.15C312.007 255.15 318.986 256.619 324.955 259.558C330.924 262.496 335.562 266.767 338.868 272.368C342.266 277.97 343.964 284.674 343.964 292.48C343.964 300.285 342.266 306.989 338.868 312.591C335.562 318.192 330.924 322.463 324.955 325.401C318.986 328.34 312.007 329.809 304.018 329.809ZM304.018 318.652C306.681 318.652 308.885 317.641 310.629 315.621C312.466 313.509 313.844 310.433 314.762 306.392C315.68 302.26 316.139 297.301 316.139 291.515C316.139 286.097 315.68 281.506 314.762 277.74C313.844 273.975 312.466 271.129 310.629 269.2C308.885 267.272 306.681 266.307 304.018 266.307C301.263 266.307 298.967 267.318 297.13 269.338C295.385 271.358 294.054 274.343 293.135 278.291C292.217 282.148 291.758 286.878 291.758 292.48C291.758 298.081 292.217 302.857 293.135 306.805C294.054 310.662 295.385 313.601 297.13 315.621C298.967 317.641 301.263 318.652 304.018 318.652ZM386.903 329.534C380.842 329.534 375.516 328.156 370.924 325.401C366.333 322.554 362.705 318.376 360.042 312.866C357.471 307.356 356.185 300.561 356.185 292.48C356.185 284.306 357.471 277.511 360.042 272.093C362.705 266.583 366.287 262.45 370.787 259.695C375.378 256.849 380.704 255.425 386.765 255.425C393.561 255.425 398.841 256.986 402.606 260.109C406.372 263.139 409.035 267.455 410.596 273.057C412.249 278.567 413.075 284.995 413.075 292.342L414.453 292.617C414.545 299.596 413.672 305.887 411.836 311.489C409.999 317.09 407.06 321.498 403.02 324.713C398.979 327.927 393.607 329.534 386.903 329.534ZM396.408 315.621C399.255 315.621 401.642 314.749 403.571 313.004C405.591 311.259 407.106 308.688 408.116 305.29C409.126 301.8 409.632 297.53 409.632 292.48C409.632 287.337 409.126 283.067 408.116 279.669C407.106 276.179 405.591 273.562 403.571 271.817C401.642 270.072 399.255 269.2 396.408 269.2C393.653 269.2 391.265 270.072 389.245 271.817C387.316 273.562 385.801 276.179 384.699 279.669C383.689 283.067 383.184 287.337 383.184 292.48C383.184 297.53 383.689 301.8 384.699 305.29C385.801 308.688 387.316 311.259 389.245 313.004C391.265 314.749 393.653 315.621 396.408 315.621ZM410.183 328.156V310.662L412.249 291.791L408.254 275.674V245.921H398.612V233.937H433.324V316.31H442.553V328.156H410.183ZM490.725 329.809C482.644 329.809 475.619 328.34 469.65 325.401C463.681 322.371 458.997 318.101 455.6 312.591C452.294 306.989 450.641 300.285 450.641 292.48C450.641 284.674 452.294 277.97 455.6 272.368C458.997 266.767 463.681 262.496 469.65 259.558C475.619 256.619 482.644 255.15 490.725 255.15C498.715 255.15 505.694 256.619 511.663 259.558C517.632 262.496 522.27 266.767 525.576 272.368C528.973 277.97 530.672 284.674 530.672 292.48C530.672 300.285 528.973 306.989 525.576 312.591C522.27 318.192 517.632 322.463 511.663 325.401C505.694 328.34 498.715 329.809 490.725 329.809ZM490.725 318.652C493.388 318.652 495.592 317.641 497.337 315.621C499.174 313.509 500.551 310.433 501.47 306.392C502.388 302.26 502.847 297.301 502.847 291.515C502.847 286.097 502.388 281.506 501.47 277.74C500.551 273.975 499.174 271.129 497.337 269.2C495.592 267.272 493.388 266.307 490.725 266.307C487.97 266.307 485.675 267.318 483.838 269.338C482.093 271.358 480.762 274.343 479.843 278.291C478.925 282.148 478.466 286.878 478.466 292.48C478.466 298.081 478.925 302.857 479.843 306.805C480.762 310.662 482.093 313.601 483.838 315.621C485.675 317.641 487.97 318.652 490.725 318.652ZM571.414 328.156V316.31H582.021V268.649H572.379V256.803H603.234V280.771L606.265 280.358V316.31H612.326V328.156H571.414ZM616.871 328.156V316.31H622.932V279.669C622.932 276.914 622.198 274.848 620.728 273.47C619.351 272.001 617.514 271.266 615.218 271.266C613.565 271.266 612.05 271.588 610.673 272.231C609.387 272.873 608.331 273.975 607.504 275.536C606.678 277.098 606.265 279.256 606.265 282.011L602.683 282.148C602.683 276.73 603.234 272.047 604.336 268.098C605.53 264.149 607.734 261.073 610.948 258.869C614.162 256.665 618.8 255.563 624.861 255.563C631.381 255.563 636.707 257.446 640.839 261.211C645.064 264.976 647.176 270.945 647.176 279.118V316.31H653.237V328.156H616.871ZM657.645 328.156V316.31H663.706V279.669C663.706 276.914 663.017 274.848 661.639 273.47C660.262 272.001 658.425 271.266 656.13 271.266C654.568 271.266 653.099 271.588 651.722 272.231C650.344 272.873 649.242 273.975 648.416 275.536C647.589 277.098 647.176 279.256 647.176 282.011L644.972 282.148C644.972 276.73 645.569 272.047 646.763 268.098C647.956 264.149 650.115 261.073 653.237 258.869C656.359 256.665 660.859 255.563 666.736 255.563C673.164 255.563 678.307 257.491 682.164 261.348C686.113 265.114 688.087 271.22 688.087 279.669V316.31H695.525V328.156H657.645ZM703.846 328.156V316.31H714.453V268.649H704.811V256.803H739.248V316.31H748.339V328.156H703.846ZM726.024 251.568C721.891 251.568 718.585 250.375 716.106 247.987C713.626 245.507 712.387 242.201 712.387 238.069C712.387 233.845 713.626 230.539 716.106 228.151C718.585 225.764 721.891 224.57 726.024 224.57C730.064 224.57 733.324 225.764 735.804 228.151C738.283 230.539 739.523 233.845 739.523 238.069C739.523 242.201 738.283 245.507 735.804 247.987C733.324 250.375 730.064 251.568 726.024 251.568ZM796.747 329.809C788.665 329.809 781.64 328.34 775.671 325.401C769.702 322.371 765.019 318.101 761.621 312.591C758.315 306.989 756.662 300.285 756.662 292.48C756.662 284.674 758.315 277.97 761.621 272.368C765.019 266.767 769.702 262.496 775.671 259.558C781.64 256.619 788.665 255.15 796.747 255.15C804.736 255.15 811.715 256.619 817.684 259.558C823.653 262.496 828.291 266.767 831.597 272.368C834.995 277.97 836.694 284.674 836.694 292.48C836.694 300.285 834.995 306.989 831.597 312.591C828.291 318.192 823.653 322.463 817.684 325.401C811.715 328.34 804.736 329.809 796.747 329.809ZM796.747 318.652C799.41 318.652 801.614 317.641 803.359 315.621C805.195 313.509 806.573 310.433 807.491 306.392C808.409 302.26 808.868 297.301 808.868 291.515C808.868 286.097 808.409 281.506 807.491 277.74C806.573 273.975 805.195 271.129 803.359 269.2C801.614 267.272 799.41 266.307 796.747 266.307C793.992 266.307 791.696 267.318 789.859 269.338C788.114 271.358 786.783 274.343 785.865 278.291C784.946 282.148 784.487 286.878 784.487 292.48C784.487 298.081 784.946 302.857 785.865 306.805C786.783 310.662 788.114 313.601 789.859 315.621C791.696 317.641 793.992 318.652 796.747 318.652Z" fill="white"/>
<path d="M17.2314 402.398H165.922" stroke="white" stroke-width="6.49305" stroke-linecap="round"/>
<path d="M691.717 406.092H840.408" stroke="white" stroke-width="6.49305" stroke-linecap="round"/>
</svg>
